<svg id="Layer_1" data-name="Layer 1" xmlns="http://www.w3.org/2000/svg" viewBox="0 0 48 48"><defs><style>.cls-1{fill:#a98d4b;}.cls-2{fill:#fff;}</style></defs><title>Add</title><path d="M24,19.47l3.9,3.89-8.46,8.46L16,32.2a.73.73,0,0,1-.81-.81l.39-3.47Zm6.31-.58-1.83-1.83a1.47,1.47,0,0,0-2.07,0l-1.72,1.72,3.9,3.89L30.34,21A1.45,1.45,0,0,0,30.34,18.89Z"/><circle class="cls-1" cx="24" cy="24" r="24"/><polygon class="cls-2" points="35 22 26 22 26 13 22 13 22 22 13 22 13 26 22 26 22 35 26 35 26 26 35 26 35 22"/></svg>